<svg xmlns="http://www.w3.org/2000/svg" viewBox="0 0 150 150"><defs><style>.cls-1{fill:#fff;}</style></defs><title>gm-logo-square</title><g id="Layer_2" data-name="Layer 2"><g id="Layer_1-2" data-name="Layer 1"><path class="cls-1" d="M0,0V150H150V0ZM53.13,74.81H65.2V93.87q-8,8.92-22.14,8.92a27.33,27.33,0,0,1-19.87-7.84q-8-7.84-8-19.79a26.75,26.75,0,0,1,8.19-19.95,27.25,27.25,0,0,1,19.76-8,29.23,29.23,0,0,1,20.1,7.61l-6.23,9a23.75,23.75,0,0,0-6.65-4.34,17.83,17.83,0,0,0-6.57-1.19,15.74,15.74,0,0,0-11.53,4.65q-4.69,4.65-4.69,12.26T32,87.38A14.52,14.52,0,0,0,42.75,92a20.58,20.58,0,0,0,10.38-2.38ZM124,68.35,109.48,97.72h-7.15L87.88,68.35v33.82h-12V48.44H92.1L105.94,78l13.92-29.52H136v53.74H124Z"/></g></g></svg>